<svg width="38" height="38" viewBox="0 0 38 38" fill="none" xmlns="http://www.w3.org/2000/svg">
<path d="M28.2031 16.0312C31.6463 16.0312 34.4375 13.24 34.4375 9.79688C34.4375 6.35372 31.6463 3.5625 28.2031 3.5625C24.76 3.5625 21.9688 6.35372 21.9688 9.79688C21.9688 13.24 24.76 16.0312 28.2031 16.0312Z" fill="#FFA602"/>
<path d="M28.2031 14.25C30.6625 14.25 32.6562 12.2563 32.6562 9.79688C32.6562 7.33748 30.6625 5.34375 28.2031 5.34375C25.7437 5.34375 23.75 7.33748 23.75 9.79688C23.75 12.2563 25.7437 14.25 28.2031 14.25Z" fill="#FFCE29"/>
<path opacity="0.3" d="M19 38C26.5421 38 32.6562 37.2025 32.6562 36.2188C32.6562 35.235 26.5421 34.4375 19 34.4375C11.4579 34.4375 5.34375 35.235 5.34375 36.2188C5.34375 37.2025 11.4579 38 19 38Z" fill="black"/>
<path d="M8.82847 17.8386C10.0284 17.4384 11.3317 17.477 12.5062 17.9479L19.7327 20.8442C21.7051 21.7408 22.5387 24.0956 21.5697 26.0336L21.1595 26.8541L26.8262 24.1466C28.1794 23.5149 29.7908 24.0374 30.5164 25.343C31.3031 26.7591 30.7503 28.5445 29.3016 29.2689L23.0114 32.414C22.4473 32.696 21.7936 32.7382 21.1981 32.531L9.80934 28.5695C9.65378 28.5154 9.48456 28.5166 9.33019 28.573L6.68562 29.5349C5.16741 30.0871 3.5625 28.9631 3.5625 27.3475V20.8774C3.5625 20.1109 4.05294 19.4299 4.78028 19.1876L8.82847 17.8386Z" fill="#FFCE29"/>
<path opacity="0.15" d="M27.9739 26.6143L21.923 29.64L16.0372 27.5928C14.4875 27.0536 12.7959 27.873 12.258 29.4215L21.1987 32.531C21.7942 32.7382 22.4479 32.696 23.012 32.414L29.3022 29.2689C30.2919 28.7737 30.8495 27.7822 30.8613 26.7526C30.0147 26.2295 28.9299 26.1357 27.9739 26.6143Z" fill="black"/>
<path d="M24.3438 19C28.2788 19 31.4688 15.81 31.4688 11.875C31.4688 7.93997 28.2788 4.75 24.3438 4.75C20.4087 4.75 17.2188 7.93997 17.2188 11.875C17.2188 15.81 20.4087 19 24.3438 19Z" fill="#FFA602"/>
<path d="M24.3438 17.2188C27.295 17.2188 29.6875 14.8263 29.6875 11.875C29.6875 8.92373 27.295 6.53125 24.3438 6.53125C21.3925 6.53125 19 8.92373 19 11.875C19 14.8263 21.3925 17.2188 24.3438 17.2188Z" fill="#FFCE29"/>
<path d="M24.9511 8.45082L25.6726 9.91322L27.2858 10.1478C27.8789 10.2338 28.1164 10.963 27.6866 11.3822L26.5186 12.5204L26.7941 14.1271C26.8957 14.7184 26.2752 15.1691 25.7444 14.8894L24.301 14.1306L22.8576 14.8894C22.3268 15.1685 21.7063 14.7178 21.8078 14.1271L22.0833 12.5204L20.9154 11.3822C20.4856 10.963 20.7231 10.2338 21.3162 10.1478L22.9294 9.91322L23.6508 8.45082C23.9186 7.91288 24.6857 7.91288 24.9511 8.45082Z" fill="#FFA602"/>
</svg>
