<svg width="38" height="38" viewBox="0 0 38 38" fill="none" xmlns="http://www.w3.org/2000/svg">
<path d="M19 32.6562C26.5421 32.6562 32.6562 26.5421 32.6562 19C32.6562 11.4579 26.5421 5.34375 19 5.34375C11.4579 5.34375 5.34375 11.4579 5.34375 19C5.34375 26.5421 11.4579 32.6562 19 32.6562Z" fill="#8C5830"/>
<path opacity="0.3" d="M19 38C25.2305 38 30.2812 37.2025 30.2812 36.2188C30.2812 35.235 25.2305 34.4375 19 34.4375C12.7695 34.4375 7.71875 35.235 7.71875 36.2188C7.71875 37.2025 12.7695 38 19 38Z" fill="black"/>
<path opacity="0.3" d="M19 8.3125C20.5301 8.3125 21.7752 7.15053 21.9367 5.66378C20.9902 5.45656 20.0088 5.34375 19 5.34375C11.4576 5.34375 5.34375 11.4576 5.34375 19C5.34375 20.0088 5.45656 20.9902 5.66378 21.9367C7.15112 21.7752 8.3125 20.5301 8.3125 19C8.3125 13.107 13.107 8.3125 19 8.3125Z" fill="white"/>
<path opacity="0.15" d="M32.3362 16.0633C30.8489 16.2248 29.6875 17.4699 29.6875 19C29.6875 24.8929 24.8929 29.6875 19 29.6875C17.4699 29.6875 16.2248 30.8494 16.0633 32.3362C17.0097 32.5434 17.9912 32.6562 19 32.6562C26.5424 32.6562 32.6562 26.5424 32.6562 19C32.6562 17.9912 32.5434 17.0097 32.3362 16.0633Z" fill="black"/>
<path d="M8.93298 14.8004C8.79701 14.8004 8.65986 14.769 8.53042 14.7037C8.09164 14.481 7.91707 13.9448 8.13973 13.5061C9.33851 11.1447 11.3098 9.20672 13.6895 8.04831C14.1307 7.83278 14.6644 8.01684 14.88 8.45919C15.0955 8.90153 14.9114 9.43472 14.4691 9.64965C12.4361 10.6394 10.7522 12.2954 9.72801 14.3124C9.57067 14.6223 9.25776 14.8004 8.93298 14.8004Z" fill="white"/>
<path d="M19.5938 25.5312H18.4062C17.7502 25.5312 17.2188 24.9998 17.2188 24.3438V13.6562C17.2188 13.0002 17.7502 12.4688 18.4062 12.4688H19.5938C20.2498 12.4688 20.7812 13.0002 20.7812 13.6562V24.3438C20.7812 24.9998 20.2498 25.5312 19.5938 25.5312Z" fill="#FFC30B"/>
<path d="M12.4688 19.5938V18.4062C12.4688 17.7502 13.0002 17.2188 13.6562 17.2188H24.3438C24.9998 17.2188 25.5312 17.7502 25.5312 18.4062V19.5938C25.5312 20.2498 24.9998 20.7812 24.3438 20.7812H13.6562C13.0002 20.7812 12.4688 20.2498 12.4688 19.5938Z" fill="#FFC30B"/>
</svg>
