<svg width="38" height="38" viewBox="0 0 38 38" fill="none" xmlns="http://www.w3.org/2000/svg">
<path d="M15.1406 13.0625C15.6325 13.0625 16.0312 12.6638 16.0312 12.1719C16.0312 11.68 15.6325 11.2812 15.1406 11.2812C14.6487 11.2812 14.25 11.68 14.25 12.1719C14.25 12.6638 14.6487 13.0625 15.1406 13.0625Z" fill="#CB834B"/>
<path d="M19 32.0625C20.3117 32.0625 21.375 30.9992 21.375 29.6875C21.375 28.3758 20.3117 27.3125 19 27.3125C17.6883 27.3125 16.625 28.3758 16.625 29.6875C16.625 30.9992 17.6883 32.0625 19 32.0625Z" fill="#8C5830"/>
<path d="M19 30.2812H30.2812C32.2489 30.2812 33.8438 28.6864 33.8438 26.7188V8.90625C33.8438 7.92241 33.0463 7.125 32.0625 7.125H22.5625C20.5948 7.125 19 8.71981 19 10.6875V30.2812Z" fill="#8C5830"/>
<path d="M17.8125 30.2812H7.71875C5.75106 30.2812 4.15625 28.6864 4.15625 26.7188V8.90625C4.15625 7.92241 4.95366 7.125 5.9375 7.125H15.4375C17.4052 7.125 19 8.71981 19 10.6875V29.0938C19 29.7498 18.4686 30.2812 17.8125 30.2812Z" fill="#8C5830"/>
<path d="M6.23438 13.6562C5.74216 13.6562 5.34375 13.2578 5.34375 12.7656V9.20312C5.34375 8.71091 5.74216 8.3125 6.23438 8.3125H8.01562C8.50784 8.3125 8.90625 8.71091 8.90625 9.20312C8.90625 9.69534 8.50784 10.0938 8.01562 10.0938H7.125V12.7656C7.125 13.2578 6.72659 13.6562 6.23438 13.6562Z" fill="white"/>
<path opacity="0.3" d="M10.0938 10.0938C11.7331 10.0938 13.0607 8.76434 13.0607 7.125H5.9375C4.95366 7.125 4.15625 7.92241 4.15625 8.90625V20.1857C5.79559 20.1857 7.125 18.8581 7.125 17.2188V10.6875C7.125 10.3598 7.391 10.0938 7.71875 10.0938H10.0938Z" fill="white"/>
<path opacity="0.15" d="M33.8438 26.7188V17.8125C32.2038 17.8125 30.875 19.1419 30.875 20.7812V26.7188C30.875 27.0459 30.609 27.3125 30.2812 27.3125H27.9062C26.2663 27.3125 24.9375 28.6419 24.9375 30.2812H30.2812C32.2489 30.2812 33.8438 28.6864 33.8438 26.7188Z" fill="black"/>
<path opacity="0.3" d="M19 38C26.5628 38 32.6937 37.2025 32.6937 36.2188C32.6937 35.235 26.5628 34.4375 19 34.4375C11.4372 34.4375 5.30634 35.235 5.30634 36.2188C5.30634 37.2025 11.4372 38 19 38Z" fill="black"/>
<path d="M10.6875 17.2187C10.3835 17.2187 10.0795 17.1029 9.84794 16.8708L7.47294 14.4958C7.00922 14.0321 7.00922 13.2804 7.47294 12.8167C7.93607 12.3529 8.68894 12.3529 9.15207 12.8167L10.6875 14.3515L14.3011 10.7385C14.7642 10.2748 15.5171 10.2748 15.9802 10.7385C16.4439 11.2023 16.4439 11.9539 15.9802 12.4177L11.5271 16.8708C11.2955 17.1029 10.9915 17.2187 10.6875 17.2187Z" fill="#FFC30B"/>
<path d="M29.0937 17.2187C28.7897 17.2187 28.4857 17.1029 28.2542 16.8708L23.5042 12.1208C23.0404 11.6571 23.0404 10.9054 23.5042 10.4417C23.9673 9.97794 24.7202 9.97794 25.1833 10.4417L29.9333 15.1917C30.397 15.6554 30.397 16.4071 29.9333 16.8708C29.7017 17.1029 29.3977 17.2187 29.0937 17.2187Z" fill="#FFC30B"/>
<path d="M24.3437 17.2187C24.0397 17.2187 23.7357 17.1029 23.5042 16.8708C23.0404 16.4071 23.0404 15.6554 23.5042 15.1917L28.2542 10.4417C28.7173 9.97794 29.4702 9.97794 29.9333 10.4417C30.397 10.9054 30.397 11.6571 29.9333 12.1208L25.1833 16.8708C24.9517 17.1029 24.6477 17.2187 24.3437 17.2187Z" fill="#FFC30B"/>
<path d="M14.8438 21.9688H8.3125C7.657 21.9688 7.125 21.4367 7.125 20.7812C7.125 20.1258 7.657 19.5938 8.3125 19.5938H14.8438C15.4993 19.5938 16.0312 20.1258 16.0312 20.7812C16.0312 21.4367 15.4993 21.9688 14.8438 21.9688Z" fill="#CB834B"/>
<path d="M14.8438 26.7188H8.3125C7.657 26.7188 7.125 26.1867 7.125 25.5312C7.125 24.8758 7.657 24.3438 8.3125 24.3438H14.8438C15.4993 24.3438 16.0312 24.8758 16.0312 25.5312C16.0312 26.1867 15.4993 26.7188 14.8438 26.7188Z" fill="#CB834B"/>
<path d="M29.6875 21.9688H23.1562C22.5008 21.9688 21.9688 21.4367 21.9688 20.7812C21.9688 20.1258 22.5008 19.5938 23.1562 19.5938H29.6875C30.343 19.5938 30.875 20.1258 30.875 20.7812C30.875 21.4367 30.343 21.9688 29.6875 21.9688Z" fill="#CB834B"/>
<path d="M29.6875 26.7188H23.1562C22.5008 26.7188 21.9688 26.1867 21.9688 25.5312C21.9688 24.8758 22.5008 24.3438 23.1562 24.3438H29.6875C30.343 24.3438 30.875 24.8758 30.875 25.5312C30.875 26.1867 30.343 26.7188 29.6875 26.7188Z" fill="#CB834B"/>
</svg>
