<svg xmlns="http://www.w3.org/2000/svg" width="38" height="38" viewBox="0 0 38 38" fill="none">
<path d="M24.1353 33.6401L19 30.875L13.8647 33.6401C12.6967 34.2689 11.2812 33.4234 11.2812 32.0975V21.9688H26.7188V32.0975C26.7188 33.4234 25.3032 34.2689 24.1353 33.6401Z" fill="#e19825"/>
<path d="M32.0625 15.4375C32.0625 16.5514 30.6933 17.4705 30.4184 18.4977C30.134 19.5605 30.8524 21.0395 30.3139 21.9699C29.7677 22.914 28.123 23.028 27.3564 23.7939C26.5905 24.5599 26.4759 26.2046 25.5324 26.7508C24.602 27.2893 23.123 26.5715 22.0602 26.8553C21.033 27.1308 20.1139 28.5 19 28.5C17.8861 28.5 16.967 27.1308 15.9398 26.8559C14.877 26.5715 13.398 27.2899 12.4676 26.7514C11.5235 26.2052 11.4095 24.5605 10.6436 23.7939C9.87763 23.028 8.23294 22.9134 7.68669 21.9699C7.14816 21.0395 7.866 19.5605 7.58219 18.4977C7.30669 17.4705 5.9375 16.5514 5.9375 15.4375C5.9375 14.3236 7.30669 13.4045 7.58159 12.3773C7.866 11.3145 7.14756 9.83547 7.68609 8.90506C8.23234 7.961 9.87703 7.847 10.6436 7.08106C11.4095 6.31512 11.5241 4.67044 12.4676 4.12419C13.398 3.58566 14.877 4.3035 15.9398 4.01969C16.967 3.74419 17.8861 2.375 19 2.375C20.1139 2.375 21.033 3.74419 22.0602 4.01909C23.123 4.3035 24.602 3.58506 25.5324 4.12359C26.4765 4.66984 26.5905 6.31453 27.3564 7.08106C28.1224 7.847 29.7671 7.96159 30.3133 8.90506C30.8518 9.83547 30.134 11.3145 30.4178 12.3773C30.6933 13.4045 32.0625 14.3236 32.0625 15.4375Z" fill="#4b2753"/>
<path opacity="0.3" d="M17.0911 6.74144C18.4341 6.17441 19.1953 4.70072 18.8082 3.25197C18.7334 2.97172 18.6099 2.71997 18.4668 2.48425C17.5827 2.80488 16.7984 3.78932 15.9398 4.0191C14.877 4.3035 13.398 3.58507 12.4676 4.1236C11.5235 4.66985 11.4095 6.31453 10.6436 7.08047C9.87761 7.84641 8.23233 7.961 7.68608 8.90447C7.14755 9.83488 7.8654 11.3139 7.58158 12.3767C7.3524 13.2353 6.36796 14.0196 6.04733 14.9031C6.28305 15.0462 6.5348 15.1697 6.81505 15.2445C7.07214 15.3128 7.32983 15.3461 7.58336 15.3461C8.7388 15.3461 9.80636 14.665 10.2867 13.5957C11.0051 10.1787 13.683 7.4866 17.0911 6.74144Z" fill="white"/>
<path opacity="0.15" d="M30.4184 18.4977C30.6933 17.4705 32.0625 16.5514 32.0625 15.4375C32.0625 14.3236 30.6933 13.4045 30.4184 12.3773C30.1821 11.4938 30.6292 10.3271 30.4808 9.42279C30.207 9.41685 29.9298 9.43526 29.6519 9.50948C28.2073 9.89601 27.3101 11.2836 27.4823 12.7264C27.756 13.5814 27.9063 14.4916 27.9063 15.4375C27.9063 19.7006 24.9096 23.2589 20.9089 24.1335C19.5658 24.7006 18.8047 26.1743 19.1918 27.623C19.2666 27.9033 19.3901 28.155 19.5332 28.3907C20.4173 28.0701 21.2016 27.0857 22.0602 26.8565C23.123 26.5727 24.602 27.2905 25.5324 26.752C26.4765 26.2057 26.5905 24.561 27.3564 23.7951C28.1224 23.0292 29.7677 22.9152 30.3139 21.9711C30.8524 21.0395 30.1346 19.5605 30.4184 18.4977Z" fill="black"/>
<path d="M19 24.3438C23.9188 24.3438 27.9062 20.3563 27.9062 15.4375C27.9062 10.5187 23.9188 6.53125 19 6.53125C14.0812 6.53125 10.0938 10.5187 10.0938 15.4375C10.0938 20.3563 14.0812 24.3438 19 24.3438Z" fill="#e19825"/>
<path d="M19 21.375C22.2792 21.375 24.9375 18.7167 24.9375 15.4375C24.9375 12.1583 22.2792 9.5 19 9.5C15.7208 9.5 13.0625 12.1583 13.0625 15.4375C13.0625 18.7167 15.7208 21.375 19 21.375Z" fill="#4b2753"/>
<path opacity="0.3" d="M19 38C22.6071 38 25.5312 37.2025 25.5312 36.2188C25.5312 35.235 22.6071 34.4375 19 34.4375C15.3929 34.4375 12.4688 35.235 12.4688 36.2188C12.4688 37.2025 15.3929 38 19 38Z" fill="black"/>
<path d="M17.1456 18.8268L14.1673 15.8485C13.8819 15.5631 13.8819 15.1005 14.1673 14.8151L14.4256 14.5568C14.711 14.2714 15.1736 14.2714 15.459 14.5568L17.7445 16.8423L21.899 12.0323C22.1653 11.729 22.6272 11.6994 22.9305 11.9658L23.2049 12.207C23.5082 12.4733 23.5378 12.9352 23.2714 13.2385L18.4654 18.78C18.1223 19.1757 17.5157 19.1973 17.1456 18.8268Z" fill="#e19825"/>
</svg>