<svg xmlns="http://www.w3.org/2000/svg" width="38" height="38" viewBox="0 0 38 38" fill="none">
<path d="M26.125 27.3125L29.2689 32.8148C29.7065 33.5801 30.875 33.2696 30.875 32.3879V26.125C30.875 26.125 26.125 27.439 26.125 27.3125Z" fill="#4b2753"/>
<path d="M30.875 29.6875H14.25C12.6107 29.6875 11.2812 28.3581 11.2812 26.7188V17.8125C11.2812 16.1732 12.6107 14.8438 14.25 14.8438H30.875C32.5143 14.8438 33.8438 16.1732 33.8438 17.8125V26.7188C33.8438 28.3581 32.5143 29.6875 30.875 29.6875Z" fill="#4b2753"/>
<path opacity="0.15" d="M33.8438 26.7188V19C32.2038 19 30.875 20.3288 30.875 21.9688V26.7188H27.3125C25.6726 26.7188 24.3438 28.0476 24.3438 29.6875H30.875C32.5143 29.6875 33.8438 28.3581 33.8438 26.7188Z" fill="black"/>
<path opacity="0.3" d="M19 38C25.5994 38 30.9492 37.2025 30.9492 36.2188C30.9492 35.235 25.5994 34.4375 19 34.4375C12.4006 34.4375 7.05078 35.235 7.05078 36.2188C7.05078 37.2025 12.4006 38 19 38Z" fill="black"/>
<path d="M24.3438 18.4062H7.71875C6.07941 18.4062 4.75 17.0768 4.75 15.4375V6.53125C4.75 4.89191 6.07941 3.5625 7.71875 3.5625H24.3438C25.9831 3.5625 27.3125 4.89191 27.3125 6.53125V15.4375C27.3125 17.0768 25.9831 18.4062 24.3438 18.4062Z" fill="#e19825"/>
<path d="M12.4688 16.625L9.32484 22.1273C8.88725 22.8926 7.71875 22.5821 7.71875 21.7004V15.4375C7.71875 15.4375 12.4688 16.7515 12.4688 16.625Z" fill="#e19825"/>
<path d="M18.8634 14.8746C18.981 15.0652 19.0243 15.2398 18.9952 15.3977C18.9667 15.555 18.8931 15.6869 18.7761 15.7931C18.6592 15.8994 18.5173 15.9677 18.3528 15.9962C18.1871 16.0259 18.0227 16.0099 17.8576 15.9469C17.6919 15.884 17.5506 15.7652 17.4343 15.5895L16.6529 14.3129C16.4694 14.0273 16.1541 13.8842 15.7064 13.8842C14.9435 13.8771 14.2767 13.7085 13.7049 13.3784C13.1331 13.0482 12.6872 12.5827 12.3684 11.9807C12.0495 11.3798 11.8892 10.6792 11.8892 9.87938C11.8892 9.07248 12.0495 8.37066 12.3684 7.77276C12.6872 7.17544 13.1331 6.71113 13.7049 6.3816C14.2767 6.05148 14.9476 5.88641 15.7183 5.88641C16.4884 5.88641 17.1605 6.05088 17.7365 6.3816C18.3124 6.71113 18.7595 7.17544 19.0795 7.77276C19.3984 8.37066 19.5575 9.06891 19.5575 9.8687C19.5575 10.7118 19.3818 11.4433 19.0291 12.0638C18.677 12.6831 18.1966 13.1504 17.5886 13.4656C17.911 13.5612 18.1895 13.7958 18.424 14.1704L18.8634 14.8746ZM15.7177 12.4325C16.3625 12.4325 16.8672 12.2069 17.23 11.7556C17.5934 11.3056 17.7745 10.6798 17.7745 9.87998C17.7745 9.07307 17.5952 8.44845 17.2353 8.00432C16.8761 7.56138 16.3703 7.33932 15.7177 7.33932C15.0794 7.33932 14.5789 7.56138 14.2155 8.00432C13.8528 8.44845 13.6711 9.07307 13.6711 9.87998C13.6711 10.6792 13.8528 11.305 14.2155 11.7556C14.5789 12.2069 15.0794 12.4325 15.7177 12.4325Z" fill="#4b2753"/>
<path d="M19.2066 26.7188C18.8848 26.7188 18.6544 26.6113 18.5173 26.3969C18.3789 26.182 18.3837 25.9178 18.5286 25.6037L21.4718 19.1538C21.5941 18.8937 21.7402 18.7037 21.9088 18.585C22.0774 18.4662 22.2727 18.4062 22.4954 18.4062C22.7169 18.4062 22.9128 18.4662 23.0808 18.585C23.2495 18.7037 23.3914 18.8937 23.5066 19.1538L26.4723 25.6037C26.6184 25.9255 26.6237 26.1915 26.4902 26.4029C26.3554 26.6131 26.1392 26.7188 25.8394 26.7188C25.5793 26.7188 25.3781 26.657 25.2362 26.5347C25.0948 26.4124 24.9707 26.2206 24.8627 25.9605L24.38 24.8567H20.5972L20.1257 25.9605C20.0106 26.2283 19.8882 26.4219 19.7582 26.5406C19.6282 26.6594 19.4441 26.7188 19.2066 26.7188ZM22.4717 20.4066L21.1957 23.465H23.7939L22.4954 20.4066H22.4717Z" fill="#e19825"/>
<path opacity="0.3" d="M4.75 6.53125V13.6562C6.38994 13.6562 7.71875 12.3274 7.71875 10.6875V6.53125H11.2812C12.9212 6.53125 14.25 5.20244 14.25 3.5625H7.71875C6.07941 3.5625 4.75 4.89191 4.75 6.53125Z" fill="white"/>
<path d="M6.82812 9.79688V6.53125C6.82812 6.04022 7.22772 5.64062 7.71875 5.64062H9.20312" stroke="white" stroke-width="4.6875" stroke-miterlimit="10" stroke-linecap="round" stroke-linejoin="round" fill="#000000"/>
</svg>