<svg xmlns="http://www.w3.org/2000/svg" width="38" height="38" viewBox="0 0 38 38" fill="none" transform="matrix(1, 0, 0, 1, 0, 0)">
<g clip-path="url(#clip0_55_108)">
<path d="M29.4625 9.96964L29.178 11.1518C29.016 11.8257 29.4636 12.4949 30.1482 12.6029L31.3446 12.7905C32.2222 12.9283 32.6432 13.946 32.1201 14.6632L31.407 15.6411C30.9979 16.2016 31.1546 16.9919 31.7466 17.3541L32.7821 17.9876C33.5391 18.4508 33.5391 19.5504 32.7821 20.0135L31.7466 20.647C31.1546 21.0092 30.9979 21.7995 31.407 22.36L32.1201 23.3373C32.6438 24.0552 32.2222 25.0729 31.3446 25.21L30.1488 25.3976C29.4636 25.5051 29.016 26.1743 29.178 26.8488L29.4625 28.0303C29.6697 28.893 28.8925 29.6703 28.0303 29.4625L26.8482 29.178C26.1743 29.016 25.5051 29.4636 25.397 30.1482L25.2094 31.3446C25.0717 32.2222 24.054 32.6432 23.3367 32.1201L22.3588 31.407C21.7983 30.9979 21.008 31.1546 20.6459 31.7466L20.0123 32.7821C19.5492 33.5391 18.4496 33.5391 17.9865 32.7821L17.3529 31.7466C16.9907 31.1546 16.2005 30.9979 15.64 31.407L14.6626 32.1201C13.9448 32.6438 12.9271 32.2222 12.79 31.3446L12.6023 30.1488C12.4949 29.4636 11.8257 29.016 11.1512 29.178L9.96964 29.4625C9.10692 29.6697 8.3297 28.8925 8.53751 28.0303L8.82192 26.8482C8.98401 26.1743 8.53633 25.5051 7.85173 25.397L6.65533 25.2094C5.77776 25.0717 5.3568 24.054 5.87989 23.3367L6.59298 22.3588C7.00208 21.7983 6.84533 21.008 6.25336 20.6459L5.21786 20.0123C4.46083 19.5492 4.46083 18.4496 5.21786 17.9865L6.25336 17.3529C6.84533 16.9907 7.00208 16.2005 6.59298 15.64L5.87989 14.6626C5.3562 13.9448 5.77776 12.9271 6.65533 12.79L7.85114 12.6023C8.53633 12.4949 8.98401 11.8257 8.82192 11.1512L8.53751 9.96964C8.3303 9.10692 9.10752 8.3297 9.96964 8.53751L11.1518 8.82192C11.8257 8.98401 12.4949 8.53633 12.6029 7.85173L12.7905 6.65533C12.9283 5.77776 13.946 5.3568 14.6632 5.87989L15.6411 6.59298C16.2016 7.00208 16.9919 6.84533 17.3541 6.25336L17.9876 5.21786C18.4508 4.46083 19.5504 4.46083 20.0135 5.21786L20.647 6.25336C21.0092 6.84533 21.7995 7.00208 22.36 6.59298L23.3373 5.87989C24.0552 5.3562 25.0729 5.77776 25.21 6.65533L25.3976 7.85114C25.5051 8.53633 26.1743 8.98401 26.8488 8.82192L28.0303 8.53751C28.8925 8.3303 29.6697 9.10752 29.4625 9.96964Z" fill="#4b2753"/>
<path opacity="0.15" d="M32.1195 23.3373L31.4064 22.36C30.9973 21.7995 31.1541 21.0092 31.746 20.647L32.7815 20.0135C33.5386 19.5504 33.5386 18.4508 32.7815 17.9876L31.746 17.3541C31.1541 16.9919 30.9979 16.2016 31.4064 15.6411L32.1195 14.6632C32.6432 13.9454 32.2216 12.9283 31.3441 12.7905L30.1477 12.6029C30.1061 12.5964 30.0681 12.5815 30.0277 12.5709C29.9203 12.6783 29.8128 12.787 29.7202 12.9135L29.0065 13.892C28.3249 14.8265 28.063 16.0134 28.288 17.1481C28.424 17.8345 28.7322 18.471 29.1721 18.9994C28.7316 19.529 28.424 20.1649 28.288 20.8513C28.1527 21.5347 28.1936 22.2377 28.3973 22.8926C27.7905 23.2126 27.2644 23.6805 26.8767 24.26C26.4878 24.8413 26.2562 25.5093 26.1933 26.1945C25.5081 26.2568 24.8407 26.489 24.2589 26.8773C23.6794 27.2644 23.2115 27.791 22.8915 28.3979C22.236 28.1942 21.5324 28.1526 20.8484 28.2892C19.8568 28.4857 18.9703 29.0415 18.36 29.8365C17.7122 29.751 17.0353 29.8816 16.4356 30.2492C15.8609 30.6013 15.6388 31.4058 15.6388 31.4058C16.1993 30.9967 16.9896 31.1535 17.3518 31.7454L17.9853 32.7809C18.4484 33.538 19.548 33.538 20.0112 32.7809L20.6447 31.7454C21.0069 31.1535 21.7966 30.9973 22.3577 31.4058L23.3356 32.1189C24.0534 32.6426 25.0705 32.221 25.2083 31.3435L25.3959 30.147C25.5034 29.4619 26.1725 29.0142 26.8464 29.1769L28.0286 29.4613C28.8913 29.6685 29.6685 28.8913 29.4607 28.0291L29.1763 26.8476C29.0142 26.1731 29.4619 25.5039 30.1471 25.3965L31.3429 25.2088C32.2222 25.0723 32.6432 24.0546 32.1195 23.3373Z" fill="black"/>
<path opacity="0.3" d="M13.7401 11.1221C14.3196 10.735 14.7875 10.2083 15.1075 9.60151C15.763 9.80517 16.466 9.84673 17.1506 9.71017C18.1422 9.51364 19.0286 8.95789 19.639 8.16286C20.2179 7.53883 20.4578 6.88808 20.6472 6.25336L20.0137 5.21786C19.5505 4.46083 18.4509 4.46083 17.9878 5.21786L17.3542 6.25336C16.9921 6.84533 16.2024 7.00148 15.6413 6.59298L14.6634 5.87989C13.9455 5.3562 12.9284 5.77776 12.7907 6.65533L12.6031 7.85173C12.4956 8.53692 11.8264 8.98401 11.1525 8.82192L9.97037 8.53751C9.10765 8.3303 8.33044 9.10752 8.53825 9.96964L8.82265 11.1512C8.98475 11.8257 8.53706 12.4949 7.85187 12.6023L6.65606 12.79C5.7785 12.9277 5.35694 13.9448 5.88062 14.6626L6.59372 15.64C7.00281 16.2005 6.84606 16.9907 6.25409 17.3529L5.21859 17.9865C4.46156 18.4496 4.46156 19.5492 5.21859 20.0123L6.25409 20.6459C6.84606 21.008 7.00222 21.7983 6.59372 22.3588L5.88062 23.3367C5.35694 24.0546 5.7785 25.0717 6.65606 25.2094L7.85247 25.397C7.897 25.4042 7.93737 25.4196 7.97953 25.4309C8.08581 25.324 8.18794 25.2112 8.27937 25.0859L8.99306 24.1074C9.67469 23.1729 9.93653 21.986 9.7115 20.8513C9.57553 20.1649 9.26737 19.5284 8.8274 19C9.26797 18.4704 9.57553 17.8345 9.7115 17.1481C9.84687 16.4647 9.8059 15.7617 9.60225 15.1068C10.2091 14.7867 10.7351 14.3189 11.1228 13.7394C11.5117 13.1581 11.7433 12.4901 11.8062 11.8049C12.4908 11.7426 13.1582 11.511 13.7401 11.1221Z" fill="#e19825"/>
<path opacity="0.3" d="M19 38C25.2305 38 30.2812 37.2025 30.2812 36.2188C30.2812 35.235 25.2305 34.4375 19 34.4375C12.7695 34.4375 7.71875 35.235 7.71875 36.2188C7.71875 37.2025 12.7695 38 19 38Z" fill="black"/>
<path d="M14.4601 20.1875C13.4371 20.1875 12.6439 19.8443 12.0798 19.1561C11.5151 18.4686 11.2337 17.5429 11.2337 16.3798C11.2337 15.216 11.5187 14.2933 12.0887 13.6117C12.6587 12.9301 13.449 12.5887 14.4601 12.5887C15.4707 12.5887 16.261 12.9325 16.8316 13.62C17.4016 14.3082 17.6866 15.2279 17.6866 16.3798C17.6866 17.5429 17.4016 18.4692 16.8316 19.1561C16.261 19.8443 15.4707 20.1875 14.4601 20.1875ZM14.4601 18.4953C14.801 18.4953 15.0681 18.3279 15.2623 17.993C15.4565 17.6581 15.5532 17.1202 15.5532 16.3798C15.5532 15.6394 15.4565 15.1074 15.2623 14.7838C15.0687 14.4608 14.801 14.2987 14.4601 14.2987C14.1075 14.2987 13.8367 14.4578 13.6491 14.7749C13.4609 15.0925 13.367 15.6275 13.367 16.3798C13.367 17.1439 13.4609 17.6872 13.6491 18.0102C13.8367 18.3338 14.1075 18.4953 14.4601 18.4953ZM16.6814 24.9832C16.505 25.289 16.2877 25.4647 16.0288 25.5122C15.7705 25.5591 15.5289 25.5182 15.3062 25.3887C15.083 25.2593 14.9268 25.0687 14.839 24.8158C14.7511 24.5628 14.795 24.2897 14.9714 23.9958L21.3007 13.0286C21.4771 12.7235 21.6944 12.5441 21.9533 12.4913C22.2115 12.4385 22.4526 12.4765 22.6765 12.6059C22.8997 12.7353 23.0523 12.9259 23.1348 13.1789C23.2168 13.4318 23.1758 13.7055 23.0113 13.9988L16.6814 24.9832ZM23.5398 25.4066C22.5167 25.4066 21.7235 25.0628 21.1594 24.3752C20.5954 23.6871 20.3133 22.7555 20.3133 21.581C20.3133 20.4173 20.5983 19.4976 21.1683 18.8213C21.7383 18.1462 22.5286 17.8077 23.5398 17.8077C24.5503 17.8077 25.3412 18.1486 25.9112 18.8302C26.4812 19.5118 26.7662 20.4291 26.7662 21.581C26.7662 22.7561 26.4842 23.6876 25.9201 24.3752C25.356 25.0628 24.5622 25.4066 23.5398 25.4066ZM23.5398 23.6966C23.8925 23.6966 24.1626 23.5321 24.3508 23.2031C24.5385 22.8736 24.6329 22.3333 24.6329 21.581C24.6329 20.8519 24.5361 20.3229 24.3419 19.9939C24.1484 19.6644 23.8806 19.4999 23.5398 19.4999C23.1871 19.4999 22.9163 19.6591 22.7287 19.9761C22.5405 20.2932 22.4467 20.8287 22.4467 21.581C22.4467 22.3446 22.5405 22.8885 22.7287 23.2115C22.9169 23.5351 23.1871 23.6966 23.5398 23.6966Z" fill="#e19825"/>
</g>
<defs fill="#000000">
<clipPath id="clip0_55_108" fill="#000000">
<rect width="38" height="38" fill="white"/>
</clipPath>
</defs>
</svg>