<svg xmlns="http://www.w3.org/2000/svg" width="100" height="100" viewBox="0 0 100 100" fill="none">
<path d="M41.8875 33.2833L65.35 66.7167H59.1125L35.6917 33.2833H41.8875ZM87.5 25V75C87.5 81.9042 81.9042 87.5 75 87.5H25C18.0958 87.5 12.5 81.9042 12.5 75V25C12.5 18.0958 18.0958 12.5 25 12.5H75C81.9042 12.5 87.5 18.0958 87.5 25ZM73.075 70.8333L55.6333 45.875L69.8917 29.1667H64.4292L53.1625 42.3333L43.9667 29.1667H27.925L44.3458 52.6375L28.775 70.8333H34.3292L46.8333 56.1833L57.075 70.8333H73.075Z" fill="#4b2753"/>
</svg>