<svg xmlns="http://www.w3.org/2000/svg" width="100" height="100" viewBox="0 0 100 100" fill="none">
<path d="M89.9252 25.775C88.9668 22.1917 86.1418 19.3667 82.5585 18.4084C76.0585 16.6667 50.0002 16.6667 50.0002 16.6667C50.0002 16.6667 23.9418 16.6667 17.4418 18.4084C13.8585 19.3667 11.0335 22.1917 10.0752 25.775C8.3335 32.275 8.3335 50 8.3335 50C8.3335 50 8.3335 67.725 10.0752 74.225C11.0335 77.8083 13.8585 80.6334 17.4418 81.5917C23.9418 83.3334 50.0002 83.3334 50.0002 83.3334C50.0002 83.3334 76.0585 83.3334 82.5585 81.5917C86.146 80.6334 88.9668 77.8083 89.9252 74.225C91.6668 67.725 91.6668 50 91.6668 50C91.6668 50 91.6668 32.275 89.9252 25.775ZM41.6668 64.4334V35.5667L66.6668 50L41.6668 64.4334Z" fill="#4b2753"/>
</svg>